PathFileType	4	(X/Y/Z)	Apose_0-50.trc
DataRate	CameraRate	NumFrames	NumMarkers	Units	OrigDataRate	OrigDataStartFrame	OrigNumFrames
30	30	7	22	m	30	20	50
Frame#	Time	Hip			RHip			RKnee			RAnkle			RBigToe			RSmallToe			RHeel			LHip			LKnee			LAnkle			LBigToe			LSmallToe			LHeel			Neck			Head			Nose			RShoulder			RElbow			RWrist			LShoulder			LElbow			LWrist		
		X1	Y1	Z1	X2	Y2	Z2	X3	Y3	Z3	X4	Y4	Z4	X5	Y5	Z5	X6	Y6	Z6	X7	Y7	Z7	X8	Y8	Z8	X9	Y9	Z9	X10	Y10	Z10	X11	Y11	Z11	X12	Y12	Z12	X13	Y13	Z13	X14	Y14	Z14	X15	Y15	Z15	X16	Y16	Z16	X17	Y17	Z17	X18	Y18	Z18	X19	Y19	Z19	X20	Y20	Z20	X21	Y21	Z21	X22	Y22	Z22
21	0.7	0.03338206343607485	0.9229236808312858	0.3556232790496016	0.022405659624665147	0.8885094690767058	0.4612687779818463	0.0001288584317854539	0.507154515909991	0.4961115963963406	-0.008830969801569085	0.12016953295819792	0.5164744510997399	0.19245161511760991	0.03208956589230318	0.5621455251231569	0.14522036043758396	0.030374325855173183	0.6289774243848639	-0.041550732912605866	0.03951964288468543	0.5008041466223571	0.02731067067266735	0.8886894483534263	0.24153517566196364	0.008888526474158094	0.5113119863403309	0.2233381406123514	0.0025110159109692875	0.12386823462897872	0.20520461211703944	0.21667535897084583	0.047986977246640784	0.18783370153310833	0.1659731793863455	0.036445617043359885	0.12400742847979776	-0.053062773224190625	0.040912316092470036	0.20789993967882736	0.05269648433670783	1.5724453145234518	0.34961606744513773	0.2570835183617925	1.7587164754729094	0.33880605186746365	0.23571316553678165	1.5782377968777026	0.3242603916832534	0.01568432262519301	1.493206494709551	0.5261211051721276	0.0507265634274411	1.231204214847701	0.7136268801975234	0.11433017807998679	1.0474039566194941	0.8861229307595332	0.01415459892721624	1.4790840176007567	0.14827207405143356	0.025333636127770006	1.2243514887817712	0.0022382524158487556	0.080612014951193	1.0193357283443585	-0.14613188309275743
22	0.7333333333333333	0.03355784001671936	0.9226831853064271	0.35551292511173754	0.022805821713857286	0.8883718447037903	0.46128014881570484	0.0005125011762323127	0.5076816934680655	0.49584011525016036	-0.008274902920796948	0.11923128682887109	0.5162847907283267	0.19203995431414253	0.03153163704393047	0.5622581940676238	0.1446410832205838	0.0313618169685843	0.628904310515618	-0.04153027604503871	0.03984570655325744	0.501126942963984	0.027312631862615552	0.8881374535580427	0.24161311621464923	0.009536660947730842	0.5112854766870463	0.22323164834271786	0.00291867452860359	0.12374597348889324	0.2051322716645233	0.21730006395090948	0.04792129075794427	0.1876973499684207	0.1662576420755017	0.036787366614084424	0.12381264048774555	-0.05161376833952685	0.04370385038358997	0.20685620415926975	0.05420603140508736	1.5752926775305018	0.34973232628183665	0.2610664332913899	1.760905796308821	0.33394429907372425	0.2345487891644834	1.5793072297219204	0.32388924243568296	0.01625202063579864	1.4930364031915677	0.5262675097765721	0.052864862257709755	1.231282154878504	0.7139683542377949	0.11453818432153368	1.0480302502871617	0.8854692954743976	0.013890946805533747	1.479591492921973	0.14719734434415602	0.026140594407395922	1.2249962012186855	0.001747495196415754	0.08168228774775958	1.0196757053041225	-0.14687110735370884
23	0.7666666666666667	0.03363019083502106	0.9224110918895699	0.3556317893432124	0.023283729256888056	0.8877034146532495	0.46143606035499724	0.0009732263878209299	0.5081820404918211	0.4955808744148364	-0.007735017573454397	0.11810828355725064	0.5160921552631242	0.1921032067776099	0.03141654344301267	0.5625820037655334	0.14462180280537135	0.03193347014148676	0.6287164112483415	-0.04134398603133025	0.04011340647565743	0.5012484500793215	0.027254577342803645	0.8870082126553286	0.24206464053257037	0.010135758798690756	0.5109745033871192	0.22329610699345664	0.0032195280424263425	0.1236382835612773	0.20517445741255863	0.21799389174802328	0.047626774910629464	0.18769476684532477	0.16652373871124815	0.036791728179597215	0.1238199221831802	-0.04950159500568706	0.04764892233825951	0.20525425308173337	0.05512838174189946	1.577672530819799	0.3496360948691759	0.2651593939622895	1.7626768553156158	0.327943061982364	0.23978992370191654	1.5830353211160693	0.3241317776970244	0.016889081752900853	1.4927441571772826	0.5268876097510597	0.05573244722013474	1.2321846678864006	0.7139998620309517	0.11480559147720314	1.0485754023289113	0.8850695646764477	0.01364528929624924	1.4800061132018345	0.14616839827841185	0.026812630185412467	1.225472356029914	0.001437585669813284	0.08229283010636768	1.019810483865509	-0.14760848902713328
24	0.8	0.03358364263965867	0.9221575858825451	0.3559016330884408	0.023824706004068448	0.8864708239216256	0.46173465607915726	0.001544187846374165	0.5085035816987872	0.49534744235332573	-0.007241621724711616	0.11680843961660381	0.5159033576201338	0.19281284558650674	0.03163741526709132	0.563280879889258	0.14503754453352802	0.03215380570356168	0.6286210269619715	-0.041363466535770124	0.040539266074745464	0.5013230376904664	0.027131899773741825	0.8854296087205203	0.24284222145875256	0.010598664699775245	0.5103335223347366	0.22360892396991017	0.0033783588361468255	0.1235086499893901	0.20540435068899054	0.21860435499420316	0.04721636593085007	0.1877505581355418	0.16676795849150075	0.036469610511159045	0.12393954563392746	-0.04714326060882444	0.05184101022284058	0.20349677906287664	0.05476432450913824	1.5785575838689374	0.3491384475665062	0.2674669438317504	1.7635656389719667	0.3224110066970606	0.249030889726771	1.5880808593973457	0.3250110964872502	0.017548417153381974	1.4922818745591	0.5278881752970058	0.059512860677226095	1.2336791670435396	0.7140223841108697	0.11502677648183986	1.0489256380993601	0.8849011087135211	0.013426073143092266	1.4803253120316802	0.14530231728726203	0.027257313035143966	1.2257461733731982	0.0012842352467568909	0.0823694001840062	1.019758663016138	-0.14835534797094438
25	0.8333333333333334	0.03350688874502057	0.9219509519819575	0.35617632726819504	0.02437509168365042	0.8849049542144672	0.4620728828906577	0.0021540278866671644	0.5085302381868184	0.4951460212454757	-0.006689697314594855	0.11524190306631647	0.5157239462153314	0.19426402886160749	0.03204990700614818	0.5643909442054973	0.14570633707842373	0.03212643382235718	0.6286959709758293	-0.04163098510516777	0.04115299476322133	0.5014407590330638	0.027034566742594343	0.8837321896100364	0.24372103596468006	0.010880345045859125	0.5094665645895764	0.22409248205781218	0.0034269207273205492	0.12324332504964206	0.20583220537745353	0.21903836408260366	0.04683755413586307	0.1878212794970599	0.16696074010863143	0.03594542558232864	0.12406239799991588	-0.04511842029676314	0.05513374495506081	0.20211102034502337	0.05314205864855663	1.5777819741529113	0.3482922904395125	0.2669480638001636	1.7635656866702207	0.3189268676226304	0.26054446008175647	1.5935744542781771	0.32645864403367747	0.01816270333920267	1.4917289948119088	0.5290058286033257	0.06388253842066152	1.2352376125981714	0.7143232916279261	0.11517615195246407	1.0489579994583653	0.8849328368021813	0.013306122105103861	1.4805691878114713	0.14467457841371592	0.02749772451076865	1.2258619137559774	0.001243488134034981	0.0819645462769847	1.019524230736701	-0.1490869545047526
26	0.8666666666666667	0.03355181720902502	0.9218142198693838	0.35630515112582223	0.024897603459178817	0.883416159239282	0.46232580821424724	0.002689987928164739	0.508279780005892	0.4949844694631468	-0.006060986794924098	0.11357559472304235	0.5155530690746314	0.19613065442126848	0.03254339025392908	0.5655162424557962	0.14641310551516923	0.03193404106269286	0.6288408502135299	-0.041851579892288986	0.041697739662148244	0.5014992248722485	0.027110354202620073	0.8823092504630611	0.2444120904353004	0.011032492190416429	0.5086219835159339	0.2245736535685032	0.0034731927940939624	0.12277490249896084	0.20639480655866138	0.21932284652335435	0.046584895388258045	0.1879056177491781	0.16708598876408573	0.03536720761963272	0.1241485783238469	-0.043868326076633754	0.05677934526493193	0.2014651025151549	0.050997083076342854	1.5761303684429244	0.34739210967950646	0.2640216198275745	1.763109811170807	0.31799796076092823	0.27364507715537	1.599399994855803	0.32826910569241613	0.018649066268087905	1.4912491092972906	0.5299173009269973	0.06792606545352947	1.236418151212377	0.7148577955222353	0.11531626702541835	1.0486005605502888	0.8851248727235352	0.013373907762795368	1.4807870569611714	0.1443199086078159	0.02765728635951269	1.2258961736220562	0.0012597894307628335	0.08130076836927341	1.0191473404603204	-0.1497098294660669
27	0.9	0.033785555122437	0.921742690986334	0.3561993200765647	0.025351024743489818	0.8823069442234194	0.46242660145408404	0.0030917202569080457	0.5079043090397533	0.49486838251034837	-0.005529160174458098	0.11230406791134818	0.5153815481191821	0.19787069638966995	0.03287213091317402	0.5661927057544738	0.1470106874197942	0.03164887842865159	0.6289188733193413	-0.04160351051661837	0.041786227620878184	0.501244960990214	0.027395712963369335	0.881381292343573	0.24471655003726722	0.011132471820805116	0.5080351626072234	0.22490262933071134	0.0036019762848240942	0.12222164853331316	0.2069915188342738	0.2195829940833018	0.04649667319611371	0.18800199173283988	0.16717464916845554	0.03481683257820227	0.12424189521081662	-0.043570802850768	0.056616735218685904	0.20168802482478132	0.0490814633596641	1.5745128503487842	0.34671205598457633	0.25913660112889964	1.762559557229759	0.31979154952813277	0.2860524348692822	1.6048653529098758	0.3300282749704939	0.01897781046776223	1.4909602194703957	0.530448186125449	0.07088450755688297	1.2370501768427482	0.7154206139923285	0.11555343863024849	1.0479176374605415	0.885394748717721	0.013617782400283836	1.4809951004585133	0.14423565244606232	0.027857079031937966	1.225908567166034	0.001245132479935044	0.08064109170858043	1.0187547361962195	-0.15010015946122243
